<svg xmlns="http://www.w3.org/2000/svg" width="417" height="876" fill="none">
  <defs>
    <clipPath id="a">
      <rect width="400" height="859" x="8.5" y="8.5" rx="61.5"/>
    </clipPath>
  </defs>
  <path fill="#fff" d="M0 0h417v876H0z" clip-path="url(#a)"/>
  <rect width="125" height="36.67" x="144.5" y="23.33" fill="#000" rx="18.335"/>
  <rect width="400" height="859" x="8.5" y="8.5" stroke="#000" stroke-width="7" rx="61.5"/>
  <rect width="412" height="871" x="2.5" y="2.5" stroke="#060606" stroke-opacity=".62" stroke-width="5" rx="67.5"/>
  <path fill="#000" d="M68.0695 42.0901c2.7966 0 5.127 1.9611 5.127 6.411v.0176c0 4.1948-1.9435 6.7012-5.1797 6.7012-2.3481 0-4.1069-1.3544-4.5027-3.2715l-.0176-.0967h2.2513l.0264.0791c.343.8707 1.1169 1.4335 2.2513 1.4335 2.0403 0 2.8933-1.9523 2.9813-4.3531.0088-.132.0176-.2639.0176-.4046h-.0528c-.5013 1.1609-1.7676 2.0403-3.4825 2.0403-2.4448 0-4.1684-1.7589-4.1684-4.1421v-.0176c0-2.5591 2.0138-4.3971 4.7488-4.3971m0 6.8067c1.4511 0 2.5591-1.0201 2.5591-2.436v-.0088c0-1.407-1.108-2.5063-2.5327-2.5063-1.4071 0-2.5415 1.0905-2.5415 2.4624v.0176c0 1.4422 1.0729 2.4711 2.5151 2.4711m7.9588-2.1985c-.7124 0-1.2752-.5628-1.2752-1.2752 0-.7123.5628-1.2663 1.2752-1.2663.7123 0 1.2663.554 1.2663 1.2663 0 .7124-.554 1.2752-1.2663 1.2752m0 6.4549c-.7124 0-1.2752-.5628-1.2752-1.2751 0-.7124.5628-1.2664 1.2752-1.2664.7123 0 1.2663.554 1.2663 1.2664 0 .7123-.554 1.2751-1.2663 1.2751M85.0951 55v-2.436h-6.3318v-1.9347L84.031 42.31h3.2274v8.3896h1.7237v1.8644h-1.7237V55zm-4.2916-4.2476h4.3267v-6.7276h-.0527l-4.274 6.666zM93.5815 55V44.4734h-.0528l-3.2802 2.2513v-2.0843l3.3154-2.3304h2.2425V55z"/>
  <g fill="#000" opacity=".9">
    <rect width="3.27464" height="3.92956" x="287.719" y="49.1339" rx=".327464"/>
    <rect width="3.27464" height="5.89435" x="292.303" y="47.1689" rx=".327464"/>
    <rect width="3.27464" height="8.18659" x="297.215" y="44.8767" rx=".327464"/>
    <rect width="3.27464" height="10.8063" x="301.799" y="42.257" rx=".327464"/>
  </g>
  <g fill="#000" opacity=".9">
    <path d="M330.992 45.0838c-2.136-2.1503-5.095-3.4817-8.365-3.4817-3.28 0-6.247 1.3394-8.384 3.5011l1.853 1.8525c1.663-1.6877 3.975-2.7339 6.531-2.7339 2.547 0 4.851 1.0382 6.512 2.7144z"/>
    <path d="M327.982 48.094c-1.366-1.38-3.26-2.2349-5.355-2.2349-2.104 0-4.007.863-5.374 2.2544l1.853 1.8525c.892-.9173 2.14-1.4872 3.521-1.4872 1.371 0 2.611.5617 3.502 1.4677zm-3.011 3.0103c-.594-.6097-1.425-.9882-2.344-.9882-.929 0-1.767.3867-2.363 1.0078l2.344 2.3439z"/>
  </g>
  <rect width="21.9401" height="10.4788" x="340.604" y="42.4207" stroke="#000" stroke-width=".982391" opacity=".6" rx="2.12851"/>
  <rect width="19.6478" height="8.18659" x="341.75" y="43.5669" fill="#000" opacity=".9" rx="1.30986"/>
  <path fill="#000" d="M363.69 46.1866c.724 0 1.31.5865 1.31 1.3099v.3275c0 .7234-.586 1.3098-1.31 1.3098z" opacity=".6"/>
</svg>
